<svg xmlns="http://www.w3.org/2000/svg" viewBox="0 0 369.64 53.02"><defs><style>.cls-1{fill:#ccc;}.cls-2{fill:#e6e6e6;}.cls-3{fill:#fff;}</style></defs><g id="Layer_2" data-name="Layer 2"><g id="Layer_2-2" data-name="Layer 2"><path class="cls-1" d="M2.38,16.34a19.26,19.26,0,0,1,7.05-5.18,38.28,38.28,0,0,1,9-1.73,110.55,110.55,0,0,0,15.81-2.3c7.45-1.75,13.36-1.35,20.79.41,8.33,2,15.66,6.73,24,8.56,4.26.92,4.75.91,7.68,4,2,2.16,4.17,3.75,7.37,3.08,4.29-.9,6.85-5.62,11.45-6.82,3.13-.81,6.39-1.13,9.54-1.9,5.6-1.38,11.25-2.11,16.83-3.41,8.36-1.95,17.25-4.54,25.88-5.3,6.09-.54,12,.72,18,1.6,5.69.85,11.46,1,17.14,2,5.41.89,10.71,3.06,15.88,4.81,3,1,6.54,1.91,9.33,3.13,3.05,1.33,5.24,3.86,8.56,4.83,5.32,1.55,7.3-3,11.54-4.28,5.39-1.63,10.21-4.87,15.66-6.21,6.59-1.61,13.35-2.53,20-3.88C282.68,6,291.22,3.17,300,1.46,309.46-.38,319.05.26,328.65,0A99.58,99.58,0,0,1,348.5,1.42c5.49.91,9.59,1.34,14.07,4.54,2.83,2,6.82,3.25,7.06,7.07s-3.43,6.7-4.48,10.19c-.8,2.68-1.15,5.44-1.78,8.15a12.51,12.51,0,0,0-.51,1.93c0,.54.22,1.06.18,1.64-.09,1.14-.64,2.21-.7,3.36a16.44,16.44,0,0,0,.51,3.19A35.18,35.18,0,0,1,363,46c0,1.27,0,2.54.09,3.8,0,.48.06.79-.57,1-1.08.43-1.49-.28-1.61-1.15-.22-1.46-.51-2.86-.78-4.31-.57-3.05-1.82-5.55-.92-8.63.7-2.41-.89-4-2.48-5.68a9.63,9.63,0,0,1-2.12-3.24,10.21,10.21,0,0,0-.91-2.36c-.31-.42-.39-.49-.89-.39-1.63.33-2,2.21-2.32,3.49a15.13,15.13,0,0,0,.65,7.85c.53,1.6.84,3.43-.36,4.83-1.66-.49-1.93-2.74-2.1-4.22a19.94,19.94,0,0,0-.93-5.19c-.56-1.47-.87-3-2.76-3.16-2.22-.2-3.49,1.3-4.53,3a7,7,0,0,0-1,2.78c-.13,1.05.25,2.08,0,3.14-.15.75-.57,3.79-1.36,4.14-1,.42-2.31-1.89-2.72-2.37-.85-1-1.63-2-2.43-3a7.54,7.54,0,0,0-1.81-1.66,15.61,15.61,0,0,0-8-2.85c-1.14-.05-2.08.42-3.69.09-2-.42-3.76-1.48-5.8-1.56a26.81,26.81,0,0,0-7.52,1.27c-1.41.37-1.33.91-3.51,1-1.54.07-2.86-.25-4.36.19a3.84,3.84,0,0,0-2.67,2.13,32.64,32.64,0,0,0-1.13,3.19c-.44,1.44-1.16,4.9-3.16,5.15-.89.11-.76-.36-.65-1a3.31,3.31,0,0,0,0-2.24,5.28,5.28,0,0,0-2.62-2.69,8.31,8.31,0,0,0-1.75-.63,12.67,12.67,0,0,0-1.84.14c-.95,0-2.17-.74-3.21-.87-3.8-.46-7.42.32-11.21-.64-5.47-1.38-11.74-2.87-17.33-1.28-1.75.49-2.78,2-4,3.32a3.25,3.25,0,0,0-1,1.82A4.57,4.57,0,0,1,247.2,41a2,2,0,0,1-2.4.28c-2.51-1.18-4.63-3.54-6.76-5.25a11.05,11.05,0,0,0-5.23-2,19.31,19.31,0,0,0-2.83-.32,14.21,14.21,0,0,0-2.93.58,10.12,10.12,0,0,1-6.71-.44c-4.58-1.8-11.93-6.8-16.66-3.07a31.5,31.5,0,0,0-2.33,2.29,37.51,37.51,0,0,0-2.68,2.67c-.62.75-1,1.69-1.6,2.42-.49.57-1.55,1.18-2.22.67s-1.15-2.07-1.63-2.86a11.59,11.59,0,0,0-1.81-2.8c-.92-.82-2.45-.57-3.49,0a4.21,4.21,0,0,0-1.68,2.69c-.49,1.7-1,3.41-1.46,5.11a16.07,16.07,0,0,0-.58,3.14,9.17,9.17,0,0,1-.14,2,6.14,6.14,0,0,0-.35,1.18c-.07.54,0,1.32-.37,1.71-.68-.65-.94-2-1.24-2.9-.46-1.29-.89-2.59-1.33-3.89a13.56,13.56,0,0,1-.63-2.15,22.8,22.8,0,0,0-.16-2.34c-.74-3-4.27-3-6.84-2.6-2.95.49-5.71,1.63-8.62,2.24-5.53,1.18-7.45,1.43-13.78-.7-3.78-1.28-7.48-4-11.68-3.37-1.87.25-3,.86-3.68,2.66-.5,1.4-.52,2.91-.91,4.34a42.79,42.79,0,0,1-1.37,4.29c-.46,1.18-.62,2.92-1.33,4-.5-.4-.93-.63-.87-1.4,0-.59.38-1.09.41-1.71a7.73,7.73,0,0,0-.06-2.15,19.47,19.47,0,0,0-1.34-3.41c-.39-.83-.94-2.77-2.06-2.92s-1.27,1.1-1.63,1.77c-.78,1.46-1.89,2.19-1.78,4a26.89,26.89,0,0,1,.23,4.91,25.81,25.81,0,0,1-1.2,5.2c-.54-1.06-1.42-1.93-1.08-3.23a10,10,0,0,0,.74-2.91c0-1.36-.74-2.58-1.08-3.89-.61-2.27-1-4.48-2.39-6.47a6.1,6.1,0,0,0-2.4-2.43c-1.31-.48-2.92.42-4.11.86-2.64,1-3.58.26-6.32.15-1.82-.07-2.73.69-4.36.76-4.14.18-8.28-.44-12.42-.33a22.46,22.46,0,0,0-6,.88,6.46,6.46,0,0,0-2.4,1.2,16.07,16.07,0,0,0-1.49,2.08,11.44,11.44,0,0,0-2.74,5c-.39,1.75-.12,3.55-.45,5.33-.15.84-.13,2.58-.62,3.22-.67-.76-.35-2-.52-2.87A32,32,0,0,1,75,46.63c-.06-1,.06-2,0-3a12.07,12.07,0,0,0-.85-3.26c-.73-2.11-2-2.44-4.16-2.66-1.56-.16-2.89-1.64-4.11-2.48a44.58,44.58,0,0,1-3.68-3.33,4.14,4.14,0,0,0-2.9-1.19,6.53,6.53,0,0,0-3,.29c-.59.29-.89,1-1.41,1.4a5.75,5.75,0,0,1-2.21.63c-1.27.34-1.13,1.82-1.23,2.93-.08.94-.28,1.83-.35,2.78A5.66,5.66,0,0,1,50.86,40C49.52,39.45,49,37.22,48.8,36a2.07,2.07,0,0,0-.73-1.33c-.35-.25-.32-.43-.69-.12s-.49,1.58-.56,2c-.51,3.08.27,6.33.59,9.36.1,1-.1,3.22-1.17,3.66A4.06,4.06,0,0,1,45.68,47a9.87,9.87,0,0,0-.51-2.84c-.62-1.95-1.22-3.87-1.78-5.84-.26-.9-.72-1.7-1-2.58a6.37,6.37,0,0,0-.9-1.83,4.11,4.11,0,0,0-1.8-1.12A7.87,7.87,0,0,0,37.58,32a11.11,11.11,0,0,0-5.52.8c-.6.22-1,.69-1.63.88a3.73,3.73,0,0,1-2.16-.21C27,33,25.5,32.2,24.1,32.8c-1.16.49-1.6,1.68-2,2.76a9.31,9.31,0,0,0-.93,3,6.45,6.45,0,0,1,.08,1.71,16.27,16.27,0,0,0-.42,3.11c0,1.49.35,3,0,4.47-.14.62-.15,1.25-.28,1.86s-.56,1.47-.77.39c-.07-.39.27-.79.3-1.18a3.15,3.15,0,0,0-.22-1.13c-.31-1.11-.72-2.22-.93-3.36s-.29-2.55-.5-3.82c-.34-2.08-.6-4.24-2.62-5.39a4.86,4.86,0,0,0-4.65-.44c-1.23.65-1.56,2.35-2,3.52A5,5,0,0,0,8.78,40c0,.6.36,1.54-.09,2.06-.72.83-1-2.4-1.07-2.78-.13-.79-.06-1.59-.21-2.38a23.42,23.42,0,0,0-.81-2.71c-.76-2.39-1.41-4.74-3-6.73-2.37-3-5.09-6.06-2.68-9.37A21.18,21.18,0,0,1,2.38,16.34Z"/><path class="cls-2" d="M368.72,13.83c.15,2.92-2.12,5.62-3.45,8.09-1,1.95-2,3.94-2.91,5.95-.42.95-1.15,4.5-2.76,3.33-1-.77-.73-2.15-.8-3.2a14.18,14.18,0,0,0-1.16-3.77c-.91-2.39-4.67-3.15-6.6-1.46a10.8,10.8,0,0,0-1.76,2c-.23.33-.31.81-.63,1.09-1,.82-2.91.08-4.07,0-3.19-.25-4.9,1.45-6.6,3.8-.35.49-.67,1.2-1.21,1.5a3.88,3.88,0,0,1-2.11.14c-2.37-.29-4.09-1.63-6.27-2.31-2.45-.77-5.58-1.91-8.18-1.66-3.42.32-6.5,1.56-10,1.38s-6.73-.93-10.08-.33c-1.85.33-3.79,1.07-5.53.37-.84-.34-1.52-1-2.35-1.34a9.28,9.28,0,0,0-4.3-.25c-7.26.52-14.35-1.67-21.63-.67-1.41.19-2.7.74-4.11,1-1.65.3-3.29.67-4.9,1.11a53.41,53.41,0,0,0-9.2,3.48,10.19,10.19,0,0,1-3,1.11c-1.83.26-3.22-1.06-4.44-2.2a4.9,4.9,0,0,0-3.92-1.56c-1.95.22-3.69,1.54-5.56,2a11.2,11.2,0,0,1-6.61-.11c-1.93-.83-3.64-2-5.64-2.69a31,31,0,0,0-6.52-1.55,28.13,28.13,0,0,0-7.72.22,44.87,44.87,0,0,0-5.56,1.53c-1.71.51-3.49.71-5.2,1.18s-2.92,1.4-4.61,1.6a14.74,14.74,0,0,1-8.13-1.75c-2.07-1-3.8-2-6.16-2.2a13.21,13.21,0,0,0-6.8,1.16C166,29.9,164,31.62,161.48,32c-2.34.35-4.67-.53-6.84-1.46C151,29,146.88,28,142.92,28.6c-1.29.21-2.9.13-4.09.72a6.18,6.18,0,0,0-1.63,1.51c-1.15,1.18-2.37,2-4,1.35s-2.88.12-4.29,1.34a3.39,3.39,0,0,1-3.84.66c-1.47-.75-1.15-2.33-2.17-3.33a4.16,4.16,0,0,0-1.63-.77,25.64,25.64,0,0,0-4.4-1.06,18.82,18.82,0,0,0-7.54.57,11.61,11.61,0,0,1-4.75.55c-2.67-.37-4.61-.63-7.32.15a19.74,19.74,0,0,0-5,1.85c-2.47,1.52-4.63,2.84-7.63,3.11-1.88.16-3.69-.16-5.61,0s-4.15.57-6-.32S70,32.23,68.51,31a13,13,0,0,0-6.8-2.42,24.87,24.87,0,0,0-7,.58,3.15,3.15,0,0,0-2.16,1.17c-.37.56-.34.87-.88,1.35-1,.87-1.64,1.41-2.6.59s-1.67-1-2.43.07c-.63.94-1.95,3.61-3.54,2.61-.94-.59-.91-2.5-1.27-3.41A6.88,6.88,0,0,0,39.54,28c-1.45-1-3.57-.15-5.13.3a8.18,8.18,0,0,0-2.47,1,21.21,21.21,0,0,1-3.11,2.06c-1.34.58-2.7-.4-4.09-.29a3.07,3.07,0,0,0-2.41,1.33c-.31.49-.34,1.16-.68,1.62a5.72,5.72,0,0,1-1.48,1.24c-1.08-1.19-2.55-1.13-4.09-1.49A8.08,8.08,0,0,0,12,33.44c-.67.18-1.46,1-2.12,1s-1.14-1-1.48-1.54A24.3,24.3,0,0,0,6,29.27,37,37,0,0,1,2.6,24.81c-.91-1.41-2.28-3.29-2.1-5,.15-1.51,1.91-2.72,3-3.68a22.06,22.06,0,0,1,4.29-3c4.58-2.45,10-2.75,15.11-3.34C28.63,9.1,34.33,8,40.1,7.45c2.47-.23,5.39-.82,7.85-.51a75.56,75.56,0,0,1,7.42,1.5c8.31,1.93,15.62,6.59,24,8.39,4.24.91,4.73.9,7.66,4,2.67,2.8,6.08,3.83,9.7,2a49.68,49.68,0,0,0,5.65-3.94c3.75-2.6,8.58-2.55,12.94-3.6,5.57-1.35,11.29-2.27,16.92-3.25,2.88-.5,5.74-1.54,8.58-2.24s5.75-1.34,8.66-1.85c1.4-.24,2.8-.45,4.21-.63a77.93,77.93,0,0,1,17.67.08c5.76.59,11.48,1.75,17.24,2.28,1.45.13,2.91.34,4.35.58,5.62.9,10.89,3.14,16.31,4.69a58.53,58.53,0,0,1,10.94,4.38c3.07,1.61,6.56,4.69,10.33,3.48,2.83-.91,4.75-3.39,7.62-4.24,5.38-1.59,10.18-4.77,15.62-6.08,6.58-1.58,13.32-2.48,19.95-3.81,11.53-2.3,22.59-6.23,34.38-7.22C313.9,1,319.76,1.12,325.59,1a159.78,159.78,0,0,1,18,.75c1.5.15,3,.48,4.46.66,3.82.46,7.88,1.14,11.32,2.84,1.69.82,3.31,1.84,4.94,2.77a8.92,8.92,0,0,1,3.88,3.78A5.47,5.47,0,0,1,368.72,13.83Z"/><path class="cls-3" d="M91.13,24.3a1.85,1.85,0,0,0-.19-.27,13.54,13.54,0,0,0-3.29-2.12c-.72-.42-1.29-1.06-2-1.49s-1.3-.65-1.93-1a17.1,17.1,0,0,0-3.78-1.76c-4.4-1.17-9-2.16-13.24-3.75-1.54-.58-2.82-1.7-4.35-2.32-2-.81-4.26-.75-6.19-1.61A26,26,0,0,0,41.78,8a35.29,35.29,0,0,0-4.1.93,23.93,23.93,0,0,1-3.8.48c-2.66.24-5.27,1-8,1.06a75.53,75.53,0,0,0-12,1.09c-3.09.6-6.53,1.58-9.06,3.48C2.9,16.47,1,20,2.06,22.36,3,24.42,5,25.43,6.68,26.8c1.87,1.51,3.75,1.71,6.17,2,2.27.29,3.56-.36,5.56-1.21a16.86,16.86,0,0,1,7.48-1.55c2.56.06,5.24.45,7.73-.21,3.58-.94,6.56-2,9.86.4,1,.7,2.18,1.94,3.48,2,1.81.12,3.75-1.1,5.34-1.77A16.49,16.49,0,0,1,56.8,25a17.12,17.12,0,0,1,5.81.84c3.11.77,6.2,1.53,9.24,2.54,2.53.84,5,2,7.64,1a29.56,29.56,0,0,1,4-1.33,53.48,53.48,0,0,0,6.67-1.71,2.17,2.17,0,0,0,1-.6A1.33,1.33,0,0,0,91.13,24.3Z"/><path class="cls-3" d="M220.17,20.45a43,43,0,0,0-14.57-6.36c-3.52-.81-7-2.05-10.51-2.89a209.15,209.15,0,0,0-24.46-4.12,76.19,76.19,0,0,0-25.56,2c-8.71,2-17.45,4.06-26.2,6-5.57,1.23-12.07,1.54-17,4.86a8,8,0,0,0-2.46,2.45c-3,5,4.82,6.22,8,5.82,2.88-.37,5.64-1.42,8.5-1.92a12,12,0,0,1,6.8.51c2.27,1,4.2,2.53,6.83,2.36,3.18-.21,5.38-2.71,8-4.21a17.21,17.21,0,0,1,8.87-2.28c3,.08,6,1,9,1.4a17.19,17.19,0,0,0,8.29-1c6-2,12.19.17,18.11,1.38A70.28,70.28,0,0,0,198,26.27c5.57-.17,10.44-2.63,16-1.58A58.12,58.12,0,0,0,221.55,26a2.13,2.13,0,0,0,2-.62,1.67,1.67,0,0,0,0-1.69,7.89,7.89,0,0,0-2.28-2.46C220.91,21,220.54,20.7,220.17,20.45Z"/><path class="cls-3" d="M354.31,19.68c1.68,0,3.19,1,4.74,1.68,4.41,1.92,7.52-2.1,9-5.7.54-1.33.81-3.26,0-4.55S365.53,9,364.31,8.25c-5.81-3.77-12.89-5.61-19.78-6.78C328-1.32,311,1.32,294.7,4.1c-6,1-12.11,1.86-17.86,3.55-6.21,1.82-12.66,2.73-19,4a68.57,68.57,0,0,0-13.26,4,37.63,37.63,0,0,0-6.09,3.29c-1.25.84-4.51,2.64-4,4.51a2.74,2.74,0,0,0,2.11,1.73,8.5,8.5,0,0,0,2.89,0l14.16-1.69a45.41,45.41,0,0,0,6.82-.86c2-.56,4-1.16,6.07-1.63,6.31-1.44,12.94-2.49,19.23-1,2.86.69,5.55,1.88,8.32,2.82a29.33,29.33,0,0,0,10,1.26c5.16,0,10.14-.73,14.13-4.16a8,8,0,0,1,3.09-2.07,4.38,4.38,0,0,1,3.64,1c2.25,1.79,4.47,7.24,8.23,5.86a5.33,5.33,0,0,0,2.44-2.16,26.42,26.42,0,0,1,1.85-2.71c1.81-2,3.69-1.38,5.74-.08,2.45,1.54,5.57,1.29,8.31.51a11.56,11.56,0,0,1,2.52-.6Z"/></g></g></svg>